# xmcd CD Database Entry
#
# Track frame offsets:
# 150
# 12627
# 42827
# 71895
# 83040
# 108097
# 129440
# 140465
# 173782
# 195930
# 212495
# 238952
# 271217
# 318652
#
# Disc length: 4657 seconds
#
# Revision: 19
# Processed by: cddbd v1.5PL3 Copyright (c) Steve Scherf et al.
# Submitted via: tcd 2.0b
#
DISCID=c4122f0e
DTITLE=Led Zeppelin - Early Days - The Best Of Led Zeppelin Vol. 1
DYEAR=2000
DGENRE=
TTITLE0=Good Times, Bad Times
TTITLE1=Babe I'm Gonna Leave You
TTITLE2=Dazed and Confused
TTITLE3=Communication Breakdown
TTITLE4=Whole Lotta Love
TTITLE5=What Is And What Should Never Be
TTITLE6=Immigrant Song
TTITLE7=Since I've Been Loving You
TTITLE8=Black Dog
TTITLE9=Rock And Roll
TTITLE10=The Battle Of Evermore
TTITLE11=When The Levee Breaks
TTITLE12=Stairway To Heaven
TTITLE13=data
EXTD=YEAR: 2000
EXTT0=
EXTT1=
EXTT2=
EXTT3=
EXTT4=
EXTT5=
EXTT6=
EXTT7=
EXTT8=
EXTT9=
EXTT10=
EXTT11=
EXTT12=
EXTT13=
PLAYORDER=
